<?xml version="1.0" standalone="no"?>
<svg xmlns="http://www.w3.org/2000/svg" viewBox="0 0 100.5 29" width="100.5" height="29"><path fill="#ffffff" fill-rule="nonzero" d="M9.70 10.61L9.70 10.61L12.79 10.61Q12.79 13.87 11.16 15.62Q9.53 17.38 6.55 17.38L6.55 17.38Q0 17.38 0 9.67L0 9.67L0 8.23Q0 2.16 3.36 0.62L3.36 0.62Q4.68 0 6.55 0L6.55 0Q9.29 0 11.00 1.50Q12.72 3.00 12.72 5.83L12.72 5.83L9.60 5.83Q9.34 4.42 8.66 3.70Q7.99 2.98 6.55 2.98L6.55 2.98Q4.87 2.98 4.06 4.03L4.06 4.03Q3.48 4.78 3.38 6.58L3.38 6.58Q3.34 7.15 3.34 8.14L3.34 8.14L3.34 9.62Q3.34 12.38 4.10 13.39L4.10 13.39Q4.90 14.40 6.56 14.40Q8.23 14.40 8.87 13.48Q9.50 12.55 9.70 10.61ZM22.80 11.04L22.80 11.04L22.80 9.79Q22.80 8.02 22.28 7.08Q21.77 6.14 20.14 6.14L20.14 6.14Q17.50 6.14 17.50 9.70L17.50 9.70L17.50 10.94Q17.50 14.76 20.14 14.76L20.14 14.76Q21.84 14.76 22.37 13.49L22.37 13.49Q22.80 12.48 22.80 11.04ZM25.92 10.32L25.92 10.32Q25.92 14.76 24.24 16.27L24.24 16.27Q22.82 17.57 20.14 17.57L20.14 17.57Q16.70 17.57 15.50 15.55L15.50 15.55Q14.38 13.70 14.38 10.32L14.38 10.32Q14.38 7.15 15.50 5.35L15.50 5.35Q16.75 3.34 20.05 3.34Q23.35 3.34 24.64 5.10Q25.92 6.86 25.92 10.32ZM35.11 3.53L38.40 3.53L33.82 17.23L31.37 17.23L26.76 3.53L30.05 3.53L32.59 12.46L35.11 3.53ZM43.82 0.14L43.82 17.23L40.49 17.23L40.49 0.14L43.82 0.14ZM53.42 14.59L53.42 17.23L51.48 17.23Q49.70 17.23 48.78 16.18Q47.86 15.12 47.86 13.66L47.86 13.66L47.86 6.46L46.54 6.46L46.54 4.08L47.86 4.08L47.86 1.39L50.98 1.39L50.98 4.08L53.18 4.08L53.18 6.46L50.98 6.46L50.98 13.46Q50.98 14.59 52.06 14.59L52.06 14.59L53.42 14.59Z" transform="translate(0, 5.716)"></path><line x1="62.42400000000001" y1="2%" x2="62.42400000000001" y2="98%" stroke="#ffffff" stroke-linecap="round"></line><g fill="#ffffff" color="#ffffff" transform="translate(71.424 0) scale(0.29)"><svg width="100.0" height="100.0" x="0.0" y="0.0" viewBox="0 0 100 100"><g><path fill="currentColor" d="M49.48,53.828c-8.081,10.434-15.995,15.53-24.094,15.53c-10.297,0-15.655-7.739-15.9-8.104   c-0.971-1.457-2.565-1.5-3.57-0.093c-1.008,1.411-1.041,3.747-0.073,5.218c0.279,0.423,6.965,10.358,19.543,10.358   c9.49,0,18.596-5.836,27.735-17.768c-0.605-0.841-1.219-1.706-1.851-2.627C50.673,55.472,50.076,54.64,49.48,53.828z"></path><path fill="currentColor" d="M59.743,49.817c6.274-8.269,13.893-15.515,23.603-15.515c5.891,0,7.488,1.741,7.488,1.741   s2.219,1.31,3.556-0.638c1.336-1.947,0.195-4.318,0.195-4.318c-0.606-0.977-3.212-4.164-11.239-4.164   c-11.487,0-20.413,8.71-27.246,17.758c0.538,0.746,1.075,1.484,1.613,2.268C58.411,47.968,59.082,48.911,59.743,49.817z"></path><path fill="currentColor" d="M94.779,68.035c-0.778-1.66-2.653-2.089-3.805-0.984C90.954,67.072,88,68.997,84,69.312V37.27   c0-0.009-0.783-0.015-1.234-0.015c-1.305,0-2.766,0.15-3.766,0.417v31.293c-3-0.503-5-1.486-7-2.818V40.726   c-3,1.146-4,2.519-6,4.061v17.58c-4-3.748-7.145-8.559-10.419-13.329C45.375,34.157,35.62,26.924,25.035,26.924   c-12.576,0-19.089,9.937-19.368,10.36c-0.964,1.464-0.843,3.78,0.156,5.194c1,1.415,2.282,1.379,3.258-0.068   C9.162,42.291,10,41.205,11,39.87v20.296c1,1.042,3,2.698,5,4.051V36.318c2-0.856,4-1.535,6-1.835v31.733   c1,0.113,1.611,0.191,2.5,0.191c0.845,0,1.5-0.078,2.5-0.199V34.489c3,0.314,5,1.067,8,2.273v27.008c1-0.927,3-2.107,5-3.53V40.049   c4,3.293,8.415,8.006,12.67,14.207c7.18,10.469,17.167,22.482,30.659,22.482c7.12,0,10.479-3.263,10.838-3.634   C95.293,71.939,95.557,69.695,94.779,68.035z"></path></g></svg></g></svg>